<?xml version="1.0" encoding="UTF-8"?>
<svg xmlns="http://www.w3.org/2000/svg" version="1.1" viewBox="0 0 279 48">
  <defs>
    <style>
      .cls-1 {
        fill: #fff;
      }

      .cls-2 {
        fill: #f9b621;
      }
    </style>
  </defs>
  <!-- Generator: Adobe Illustrator 28.7.1, SVG Export Plug-In . SVG Version: 1.2.0 Build 142)  -->
  <g>
    <g id="Layer_1">
      <g id="Layer_1-2" data-name="Layer_1">
        <g>
          <path class="cls-1" d="M47.9,12.8h0c-.8-1.2-1.9-1.8-3.3-1.9h-2.7c-.4,0-.7,0-1.1.2-.7.2-1.3.6-1.8,1.1-.8.9-1.2,1.9-1.2,3v5.9h8.6c-.3,1.1-1,2.2-2.2,3.2l-.4.3.3.3c.4.4.8.8,1.2,1.2l.4.4.3-.3c2.2-2.1,2.4-5.5,2.4-5.5v-5.6c0-.9-.3-1.7-.8-2.5M40.5,15.5h0c0-.5,0-1,.4-1.3.3-.5.8-.7,1.3-.7h2.2c.4,0,.8.1,1.2.4.3.2.5.5.6.9s0,.7,0,1.2v2.7h-5.8v-3.2"/>
          <path class="cls-1" d="M1.4,19.4h0c.7,1.2,1.8,1.9,3.2,1.9h16.2v-9.4l-3.2.7.6,1.3v4.8H4.4c-.3,0-.6-.1-.8-.3,0-.2-.2-.4-.2-.7v-3.4h-.5c-.4.2-1.2.3-1.6.4h-.3v3c0,.6.1,1.2.4,1.7"/>
          <polygon class="cls-1" points="219.1 21.2 221.6 21.2 221.6 6.9 218.5 7.6 219.1 8.9 219.1 21.2"/>
          <polygon class="cls-1" points="176.8 21.6 174.9 23.5 176.8 25.4 178.3 23.8 179.9 25.4 181.8 23.5 179.9 21.6 178.3 23.2 176.8 21.6"/>
          <polygon class="cls-1" points="207.2 9.3 208.8 10.9 210.6 9 208.8 7.1 207.2 8.7 205.7 7.1 203.8 9 205.7 10.9 207.2 9.3"/>
          <polygon class="cls-1" points="129.3 22.2 127.4 24.1 129.3 26 130.8 24.4 132.4 26 134.3 24.1 132.4 22.2 130.8 23.8 129.3 22.2"/>
          <path class="cls-1" d="M121.5,19.4c.7,1.2,1.8,1.9,3.2,1.9h16.2v-7.7h.4c.8,0,1.3,0,1.8.2.3,0,.4.2.6.4.1.3.2.6.2.9v4.7c0,.5.3.8.6,1.1.3.2.7.4,1.1.4h14.8l1.1-1.9c.2.3.4.6.5.7.4.5.9.8,1.5,1,.4.1.9.2,1.2.2h24.3l1.1-1.9c.2.3.4.6.5.7.4.5.9.8,1.5,1,.4.1.9.2,1.2.2h23.2V6.9l-3.1.7.6,1.3v9.7h-3.7v-6.9l-3.1.7.6,1.3v4.9h-9.2c0-.7.1-2.1.2-2.7,0-.9,0-1.6-.4-2.3-.3-.7-.8-1.3-1.4-1.8-.8-.6-1.7-.9-2.6-.9h-3.9c-.7.5-1.9,1.3-2.3,1.6l-.3.2.2.3c.2.3.3.6.3.8v4.7h-6.9v-6.9l-3.1.7.6,1.3v4.9h-8.8v-.4c0-.7.1-1.8.2-2.3,0-.9,0-1.6-.4-2.3-.3-.7-.8-1.3-1.4-1.8-.8-.6-1.7-.9-2.6-.9h-3.9c-.7.5-1.9,1.3-2.3,1.6l-.3.2.2.3c.2.3.3.6.3.8v4.7h-13.3v-3.4c0-.8-.1-1.4-.4-2-.3-.7-.8-1.3-1.4-1.6-.7-.4-1.4-.6-2.2-.6h-4.5l.5,2.8v4.9h-13.9c-.3,0-.6-.1-.8-.3,0-.2-.2-.4-.2-.6v-3.4h-.5c-.4.2-1.2.3-1.6.4h-.3v2.9c0,.6,0,1.2.4,1.7M162.1,13.5h3.2c.6,0,1.1.1,1.5.4.3.2.5.5.6,1v3.7h-2.5c-.8,0-1.4-.2-2-.7-.3-.2-.5-.5-.7-.9s-.2-.7-.2-1.1v-2.4M190.7,13.5h3.2c.6,0,1.1.1,1.5.4.3.2.5.5.6,1v3.7h-2.5c-.8,0-1.4-.2-2-.7-.3-.2-.5-.5-.7-.9s-.2-.7-.2-1.1v-2.4"/>
          <polygon class="cls-1" points="78.5 8.6 80 10.1 81.9 8.3 80 6.4 78.5 7.9 76.9 6.4 75.1 8.3 76.9 10.1 78.5 8.6"/>
          <polygon class="cls-1" points="10.9 11.7 12.4 13.3 14.3 11.4 12.4 9.5 10.9 11.1 9.3 9.5 7.5 11.4 9.3 13.3 10.9 11.7"/>
          <path class="cls-1" d="M113.4,6.9l-3.1.7.6,1.3v9.7h-3.9V6.9l-3.1.7.6,1.3v9.7h-4.5c0-.7,0-2.1.2-2.7,0-.9,0-1.6-.4-2.3-.3-.7-.8-1.3-1.4-1.8-.8-.6-1.7-.9-2.6-.9h-3.9c-.7.5-1.9,1.3-2.3,1.6l-.3.2.2.3c.2.3.3.6.3.8v4.7h-5.4v-5.1c0-.1,0-.3.2-.4h0v-.4c0,0-.2-.2-.2-.2-.7-.5-1.4-1-2.1-1.5h-.2c0-.1-1.8-.1-1.8-.1h-2.5c-.4,0-.8.1-1.3.4-.5.3-1,.7-1.5,1.3-.3.4-.6.9-.7,1.4-.2.5-.2,1-.2,1.6s.2.9.3,1.3c.2.5.6,1,1.1,1.5l.2.2h-21.3V7l-3.2.7.6,1.3v12.2h38.5l1.1-1.9c.2.3.4.6.5.7.4.5.9.8,1.5,1,.4.1.9.2,1.2.2h18.8s0-14.3,0-14.3ZM92.1,13.6h3.2c.6,0,1.1.1,1.5.4.3.2.5.5.6,1v3.7h-2.5c-.8,0-1.4-.2-2-.7-.3-.2-.5-.5-.7-.9s-.2-.7-.2-1.1v-2.4M81.7,13.5v5.1h-3.7c-.5-.6-.9-1.1-1.1-1.7s-.2-1.2,0-1.7c.2-.7.6-1.2,1.3-1.5.2,0,.4-.2.6-.2h3.3-.4Z"/>
          <polygon class="cls-1" points="35.7 6.9 32.6 7.6 33.2 8.9 33.2 18.7 29.3 18.7 29.3 9.4 26.1 10.1 26.8 11.4 26.8 18.7 23 18.7 24.1 21.2 35.7 21.2 35.7 6.9"/>
          <path class="cls-1" d="M36.3,31.3v-2.4h-.5c-.5,0-1.1.1-2,.1h-8.6v2.4h.5c.5,0,1.1-.1,1.9-.1h1.8v9.6h2.7v-9.6h4.3,0Z"/>
          <polygon class="cls-1" points="87.3 30.8 87.3 40.8 89.9 40.8 89.9 28.8 86.7 29.5 87.3 30.8"/>
          <polygon class="cls-1" points="66 30.8 66 40.8 68.5 40.8 68.5 28.8 65.4 29.5 66 30.8"/>
          <polygon class="cls-1" points="17.4 28.8 14.2 29.5 14.9 30.8 14.9 40.8 22.8 40.8 22.8 38.5 17.4 38.5 17.4 28.8"/>
          <path class="cls-1" d="M60.1,29v.3c-.2.5-.3.9-.6,1.5l-3,6.7-3-6.7c-.2-.5-.4-1.1-.5-1.5v-.3h-3.7l.4,1v10.8h2.5v-7s0-.3,0-.6c.2.3.3.5.3.6l3,7h2l3.1-7.1s0-.2.2-.5v7.6h2.4v-11.8h-3.2.2Z"/>
          <path class="cls-1" d="M81.4,29.3h0c0,.5-.3.9-.5,1.5l-3,6.7-3-6.7c-.2-.5-.4-1-.5-1.5v-.3h-3.7l.4,1v10.8h2.5v-7s0-.3,0-.6c.2.3.3.5.3.6l3,7h2l3.1-7.1s0-.2.2-.5v7.6h2.4v-11.8h-3.2v.3h0Z"/>
          <path class="cls-1" d="M8.5,29.3v-.3h-3.8l.2.7v.8L.5,40.8h2.9l1.2-3.3,2.3-5.7,2.3,5.6.4,1.1h-3.1l1,2.3h5.9l-4.4-10.3c-.3-.7-.4-1-.5-1.3"/>
          <path class="cls-1" d="M43.3,29.3v-.3h-3.8l.2.7v.8l-4.4,10.3h2.9l1.2-3.3,2.3-5.7,2.3,5.6.4,1.1h-3.1l1,2.3h5.9l-4.4-10.3c-.3-.7-.4-1-.5-1.3"/>
          <path class="cls-1" d="M142.1,29h-8.6v2.4h.5c.5,0,1.1-.1,1.9-.1h1.8v9.6h2.7v-9.6h4.3v-2.4h-.5c-.5,0-1.1.1-2,.1"/>
          <path class="cls-1" d="M190.2,29h-8.6v2.4h.5c.5,0,1.1-.1,1.9-.1h1.8v9.6h2.7v-9.6h4.3v-2.4h-.5c-.5,0-1.1.1-2,.1"/>
          <polygon class="cls-1" points="193.6 30.8 193.6 40.8 196.2 40.8 196.2 28.8 193 29.5 193.6 30.8"/>
          <path class="cls-1" d="M104.6,36.8c0,.5-.2.7-.4,1.1-.5.6-1.3,1-2.3,1-2,0-3.3-1.5-3.3-4s1.3-4,3.3-4,1.6.3,2.1.8c.3.3.4.5.6,1v.3c0,0,2.8-.6,2.8-.6l-.2-.5c-.2-.4-.3-.7-.4-1-.4-.7-1-1.2-1.7-1.6-.9-.5-1.9-.7-3.1-.7s-3.1.5-4.1,1.4c-1.2,1.1-1.9,2.8-1.9,4.8s.6,3.6,1.8,4.7c1,1,2.4,1.4,4.2,1.4s3.5-.6,4.4-1.6c.5-.6.8-1.1,1-2v-.5c0,0-2.6-.4-2.6-.4v.4h-.2Z"/>
          <path class="cls-1" d="M114.2,28.7c-1.7,0-3.1.5-4.2,1.5-1.2,1.1-1.9,2.7-1.9,4.6s.6,3.4,1.7,4.5,2.6,1.7,4.4,1.7c3.7,0,6.1-2.4,6.1-6.2s-.6-3.5-1.8-4.6c-1.1-1-2.5-1.5-4.3-1.5M117.7,34.9c0,2.5-1.3,4-3.4,4s-1.7-.3-2.2-.8c-.8-.7-1.2-1.8-1.2-3.2,0-2.4,1.3-4,3.4-4s1.6.3,2.2.8c.8.7,1.2,1.8,1.2,3.1"/>
          <path class="cls-1" d="M178.5,36.8c-.1.5-.2.7-.4,1.1-.5.6-1.3,1-2.3,1-2,0-3.3-1.5-3.3-4s1.3-4,3.3-4,1.6.3,2.1.8c.3.3.4.5.6,1v.3c.1,0,2.8-.6,2.8-.6l-.2-.5c-.2-.4-.3-.7-.4-1-.4-.7-1-1.2-1.7-1.6-.9-.5-1.9-.7-3.1-.7s-3.1.5-4.1,1.4c-1.2,1.1-1.9,2.8-1.9,4.8s.6,3.6,1.8,4.7c1,1,2.4,1.4,4.2,1.4s3.5-.6,4.4-1.6c.5-.6.8-1.1,1-2v-.5c.1,0-2.6-.4-2.6-.4v.4h-.2Z"/>
          <path class="cls-1" d="M209,38.7v-9.7h-2.5v8c-.2-.3-.5-.7-.7-1l-3.9-5.4c-.4-.6-.7-1-.9-1.4v-.2h-3.4l.4,1v.5h0v10.3h2.5v-7.9c.2.3.4.6.5.8l4,5.5c.4.6.7,1,.9,1.4v.2h2.9v-2.1"/>
          <path class="cls-1" d="M132.8,38.7v-9.7h-2.5v8c-.2-.3-.5-.7-.7-1l-3.9-5.4c-.4-.6-.7-1-.9-1.4v-.2h-3.4l.4,1v.5h0v10.3h2.5v-7.9c.2.3.4.6.5.8l4,5.5c.4.6.7,1,.9,1.4v.2h2.9v-2.1"/>
          <path class="cls-1" d="M221.6,34.6v-.5h-4.9v2.3h.5c.4,0,.7,0,1.4,0h.6v1.9c-.7.4-1.4.5-2.4.5s-1.9-.3-2.5-.9c-.7-.7-1-1.8-1-3.2s.4-2.4,1.1-3.1c.5-.5,1.3-.8,2.2-.8,1.5,0,2.1.4,2.6,1.5v.3c.1,0,2.8-.6,2.8-.6l-.2-.5c-.3-.7-.6-1.1-1.1-1.6-.9-.8-2.3-1.3-3.8-1.3s-2.6.3-3.6.9c-1.7,1.1-2.6,2.9-2.6,5.2s.5,3.4,1.5,4.5,2.6,1.7,4.6,1.7,1.6,0,2.3-.3c.8-.2,1.4-.4,2.4-.9h.3v-5.1"/>
          <path class="cls-1" d="M164.6,29.3v-.3h-3.8l.2.7v.8l-4.3,10.2-.3-.6c-.2-.4-.5-1-.6-1.1-1.1-2.4-1.6-3.4-2.3-3.9.5-.2.8-.4,1.2-.7.6-.5.9-1.3.9-2.3,0-2-1.5-3.2-4-3.2h-6.4l.5,1v10.8h2.6v-4.8h2.1c.9,0,1.4.2,2.4,2.3.5,1.1.7,1.7.8,2.1v.3h6.1l1.2-3.3,2.3-5.7,2.3,5.6.4,1.1h-3.1l1,2.3h5.9l-4.4-10.3c-.3-.7-.4-1-.5-1.3M152.8,32.4c0,.5-.1.8-.4,1.1-.3.3-.8.4-1.3.4h-2.9v-2.8h2.9c1.5,0,1.7.7,1.7,1.3"/>
          <path class="cls-2" d="M276.1,38.2c-1.2-.9-2.3-1.8-3.5-2.7-2-1.6-4-3.2-6.1-4.7-.2-.1-.4-.3-.6-.4-3-1.8-6.5-2.5-10-2.5s-4.7.3-6.9,1c-2.5.8-4.5,2.4-6.5,4-1.8,1.4-3.6,2.7-5.3,4.1-.5.4-.9.7-1.4,1.1l7.5,4.2,9.7-8.4v13.1h5.9v-13.1l9.5,8.4,7.6-4.2h.1Z"/>
          <path class="cls-2" d="M266.6,18.7l11.9-5.6-2.5-5.4-11.8,5.6h0l3.5-12.2h-8.2c-.5,2.2-1.1,4.4-1.4,6.7v.7c-.4,3.5.5,6.9,2,10.1,1,2.1,2.2,4.1,3.8,5.8,1.8,1.9,4.1,3,6.4,4.2,2,1,4,2.1,6,3.1.5.3,1,.5,1.5.8l.6-8.6-11.7-5.2h0Z"/>
          <path class="cls-2" d="M254,8.4v-.7c-.3-2.2-.9-4.4-1.4-6.7h-8.2l3.5,12.2h0l-11.8-5.6-2.5,5.4,11.9,5.6h0l-11.7,5.2.6,8.6c.5-.3,1-.5,1.5-.8,2-1,4-2.1,6-3.1,2.3-1.2,4.6-2.3,6.4-4.2,1.6-1.7,2.8-3.7,3.8-5.8,1.5-3.1,2.4-6.6,2-10.1"/>
        </g>
      </g>
    </g>
  </g>
</svg>