<svg xmlns="http://www.w3.org/2000/svg" width="44" height="18" viewBox="0 0 44 18"><g><g><path fill="#fff" d="M8.77 13.022c.399.397.598 1.092.598 1.688 0 .894-.399 1.69-.998 2.186-1.297.894-3.692.894-5.987.894H-.013v-.398l1.098-.298v-2.682-4.569-2.682h-.1l-.998-.298v-.297H4.18c2.096.098 3.792.297 4.49 1.688.1.298.2.794.2 1.191 0 1.59-1.297 2.087-2.694 2.385.998.298 1.996.496 2.595 1.192zM2.98 11.73c1.797 0 3.294-.1 3.793-1.193.399-.993.2-2.383-.799-2.88-.698-.397-1.696-.397-2.894-.397h-.1V11.731zm3.892 1.29c-.798-.893-2.295-.794-3.892-.794V17.194c1.896.099 3.393.099 4.092-.994.599-.993.499-2.483-.2-3.178zm27.345-1.787c.399.695.499 1.291.499 2.384v.1c0 1.191-.1 1.787-.5 2.383-.598.993-1.696 1.887-3.293 1.887h-.598c-.799 0-1.398-.298-1.897-.596-.997-.695-1.696-1.788-1.696-3.476v-.298-.298c0-1.788.699-2.782 1.696-3.477.5-.298 1.098-.497 1.897-.595h.598c1.597 0 2.795.893 3.294 1.986zm-1.398 2.384c0-2.582-.698-3.775-1.995-3.775h-.3c-1.297 0-1.996 1.193-1.996 3.775s.699 3.774 1.996 3.774h.3c1.297 0 1.995-1.291 1.995-3.774zm11.178 3.873v.299h-3.793v-.199l1.098-.298v-5.165c0-.298-.1-.596-.1-.596-.1-.695-.798-1.192-1.497-1.192-.698-.1-1.497.198-1.896.696v6.158l.998.297v.299h-3.792v-.398l1.098-.298V10.34l-1.098-.298v-.199l2.694-.695.1.1v1.192c.1 0 .3-.2.4-.299.499-.397 1.097-.893 2.195-.893A2.57 2.57 0 0 1 43 11.83v5.364zM18.35 13.717c0 1.192-.1 1.788-.499 2.384-.599.993-1.697 1.887-3.293 1.887h-.599c-.798 0-1.397-.298-1.896-.596-.998-.695-1.697-1.788-1.697-3.476v-.298-.298c0-1.788.699-2.782 1.697-3.477.499-.298 1.098-.497 1.896-.595h.599c1.596 0 2.694.893 3.293 1.887.4.695.499 1.291.499 2.384zm-1.896-.1c0-2.581-.699-3.774-1.996-3.774h-.3c-1.297 0-1.995 1.193-1.995 3.775s.698 3.774 1.996 3.774h.299c1.297 0 1.996-1.291 1.996-3.774zm9.88 3.477l1.197.397v.299H23.54v-.299l.699-.198-2.295-3.079-2.196 2.98 1.198.297v.299H18.15v-.299l.799-.297 2.594-3.477-2.794-3.675-.2-.199 3.194-4.27-1.696-2.087L22.64.01l2.395 3.178-1.796 2.483 2.994 3.973-.2.298-2.495 3.477zM22.94 5.174l1.197-1.588L22.442 1.4l-1.198 1.59zm.2 7.748l1.995-2.681-3.094-4.073-1.995 2.681z"/></g></g></svg>